<svg xmlns="http://www.w3.org/2000/svg" viewBox="0 0 32 32" width="176" height="176" style="border-color: rgba(187,187,187,1);border-width: 0px;border-style: solid" filter="none">
    
    <g>
    <path d="M16 29.333c-7.364 0-13.333-5.969-13.333-13.333s5.969-13.333 13.333-13.333 13.333 5.969 13.333 13.333-5.969 13.333-13.333 13.333zM16 26.667c5.891 0 10.667-4.776 10.667-10.667s-4.776-10.667-10.667-10.667v0c-5.891 0-10.667 4.776-10.667 10.667s4.776 10.667 10.667 10.667v0zM14.667 20h2.667v2.667h-2.667v-2.667zM17.333 17.807v0.86h-2.667v-2c0-0.736 0.597-1.333 1.333-1.333v0c1.105-0 2-0.895 2-2s-0.895-2-2-2c-0.966 0-1.772 0.685-1.959 1.595l-0.002 0.013-2.616-0.524c0.442-2.155 2.323-3.752 4.577-3.752 2.578 0 4.668 2.090 4.668 4.668 0 2.103-1.39 3.881-3.302 4.465l-0.033 0.009z" fill="rgba(106.08,98.94,82.11,1)"></path>
    </g>
  </svg>